<?xml version="1.0" standalone="no"?>
<!DOCTYPE svg PUBLIC "-//W3C//DTD SVG 20010904//EN"
 "http://www.w3.org/TR/2001/REC-SVG-20010904/DTD/svg10.dtd">
<svg version="1.0" xmlns="http://www.w3.org/2000/svg"
 width="960.000000pt" height="960.000000pt" viewBox="0 0 960.000000 960.000000"
 preserveAspectRatio="xMidYMid meet">
<metadata>
Created by potrace 1.11, written by Peter Selinger 2001-2013
</metadata>
<g transform="translate(0.000000,960.000000) scale(0.100000,-0.100000)"
fill="#000000" stroke="none">
<path d="M5560 7363 c-36 -24 -41 -34 -36 -71 5 -43 42 -81 122 -128 34 -20
89 -64 121 -96 32 -33 66 -68 77 -77 10 -9 24 -21 31 -28 11 -11 119 -88 262
-190 29 -20 51 -38 49 -40 -1 -1 -21 -5 -44 -8 -45 -6 -87 10 -125 46 -12 10
-26 19 -33 19 -7 0 -14 4 -16 8 -1 4 -18 19 -37 32 -26 18 -47 24 -89 23 -46
0 -60 4 -77 23 -12 13 -25 24 -28 24 -4 0 -32 19 -63 43 -31 23 -60 42 -63 42
-3 0 -22 11 -41 25 -40 29 -67 35 -86 19 -7 -6 -19 -7 -26 -3 -20 13 -50 12
-83 -2 -30 -12 -34 -10 -131 56 -54 38 -104 73 -111 79 -7 6 -14 11 -16 11 -2
0 -42 25 -88 56 -75 51 -87 55 -122 50 -22 -4 -58 -15 -80 -26 -58 -28 -72
-26 -135 24 -32 25 -69 49 -84 55 -28 11 -290 17 -306 7 -5 -3 -12 -3 -15 0
-3 3 -50 8 -104 10 -54 3 -109 5 -123 6 -35 3 -100 -11 -100 -21 0 -4 -23 -20
-52 -36 -50 -27 -238 -151 -248 -164 -3 -3 -23 -20 -45 -36 -58 -43 -129 -103
-179 -150 -21 -21 -186 -162 -236 -203 -23 -18 -33 -20 -55 -12 -19 7 -33 6
-53 -4 -42 -22 -60 -47 -76 -110 -9 -32 -28 -72 -44 -90 -28 -32 -69 -78 -128
-143 l-31 -35 -37 16 c-21 9 -51 17 -68 18 -16 1 -31 5 -33 8 -4 7 -249 4
-288 -4 -23 -4 -30 0 -37 19 -8 22 -48 52 -60 46 -41 -22 -60 -39 -67 -64 -7
-28 -16 -33 -73 -48 -94 -24 -249 -87 -270 -109 -3 -3 -18 -12 -35 -20 -16 -8
-80 -47 -142 -87 -119 -79 -233 -173 -341 -282 -61 -61 -96 -100 -193 -214
-40 -48 -55 -55 -121 -63 -29 -3 -56 -8 -60 -11 -5 -2 -8 0 -8 6 0 15 -118
-33 -205 -83 -22 -12 -58 -33 -80 -45 -93 -54 -147 -96 -175 -136 -17 -24 -36
-50 -44 -58 -18 -18 -82 -152 -92 -192 -4 -16 -10 -34 -13 -40 -22 -33 -18
-396 4 -475 4 -16 12 -102 21 -234 3 -44 7 -83 10 -87 2 -4 0 -10 -5 -13 -5
-3 -6 -21 -2 -38 8 -42 7 -60 -2 -75 -5 -7 -4 -13 0 -13 5 0 8 -25 8 -55 0
-30 -3 -55 -6 -55 -3 0 -6 -6 -7 -12 -1 -15 -4 -26 -20 -83 -16 -57 -24 -116
-27 -220 -2 -49 -6 -99 -8 -110 -31 -123 -34 -151 -24 -225 10 -74 57 -151
119 -192 49 -34 78 -35 129 -6 32 18 64 62 60 83 -1 3 5 21 13 40 9 20 15 39
16 43 0 4 14 51 31 104 16 53 32 105 34 115 7 34 43 128 74 196 17 37 31 72
31 77 0 6 5 10 10 10 6 0 10 7 10 15 0 22 115 139 207 211 46 35 86 64 89 64
9 0 94 70 150 123 56 53 94 119 94 161 0 14 9 34 19 44 37 32 50 42 61 42 5 0
10 5 10 10 0 6 6 10 14 10 8 0 16 3 18 8 6 15 203 98 257 108 26 5 75 -23 132
-76 19 -17 71 -54 116 -82 73 -45 240 -191 312 -272 105 -119 243 -246 302
-279 141 -79 226 -92 374 -57 99 23 117 31 160 72 29 28 32 29 105 23 41 -3
79 -10 84 -15 7 -7 6 -10 -2 -10 -7 0 -12 -6 -12 -14 0 -8 -31 -47 -68 -87
-37 -41 -83 -94 -102 -119 -19 -24 -54 -64 -77 -89 -67 -71 -95 -188 -55 -224
10 -10 22 -14 25 -10 11 10 57 -50 57 -73 0 -36 51 -42 64 -9 5 14 -18 45 -34
45 -11 0 -40 29 -40 40 0 8 66 80 74 80 2 0 21 17 43 38 47 44 119 103 142
116 9 5 18 12 21 16 6 8 68 30 84 30 23 0 43 -82 40 -159 -2 -40 -5 -75 -6
-77 -2 -1 -16 -5 -32 -8 -43 -8 -52 -23 -15 -24 38 -1 60 -20 62 -55 1 -14 5
-23 8 -21 7 4 20 -19 25 -45 1 -8 7 -17 12 -20 5 -3 19 -32 32 -63 20 -50 21
-59 9 -74 -8 -10 -9 -15 -3 -11 7 4 14 -2 17 -13 3 -11 1 -17 -4 -14 -5 3 0
-11 11 -30 25 -45 25 -45 3 -62 -10 -7 -13 -14 -8 -14 6 -1 1 -6 -10 -11 l-20
-9 20 3 c11 2 19 9 18 15 -4 18 14 15 21 -4 8 -22 8 -26 -4 -19 -5 3 -10 2
-10 -4 0 -5 9 -9 20 -8 11 1 20 5 20 9 0 4 5 8 11 8 6 0 9 -6 6 -13 -3 -8 -1
-20 5 -28 8 -12 9 -12 5 1 -2 8 3 21 12 28 10 8 10 11 2 6 -10 -5 -12 -3 -6 6
6 9 4 11 -5 5 -9 -6 -11 -4 -5 4 6 10 3 11 -12 2 -20 -10 -33 -6 -33 10 0 4
10 5 23 3 22 -5 22 -4 1 5 -25 11 -41 31 -25 31 6 0 11 -5 11 -11 0 -5 5 -7
11 -4 6 4 17 -2 24 -13 9 -12 23 -18 40 -17 14 2 23 -1 19 -6 -3 -5 0 -9 6 -9
7 0 10 -7 6 -15 -3 -8 -3 -22 0 -30 5 -13 9 -13 22 -3 13 11 15 10 10 -4 -4
-9 0 -24 8 -35 14 -17 14 -17 7 1 -5 15 -3 17 8 11 11 -6 12 -5 2 6 -20 20
-15 31 7 17 21 -13 36 -6 25 11 -3 6 -17 9 -31 7 -13 -3 -24 0 -24 6 0 5 7 7
16 4 11 -4 15 -2 11 7 -3 8 1 14 9 14 8 0 12 -2 10 -5 -6 -5 26 -42 37 -42 4
0 3 9 -3 21 -7 11 -9 23 -7 26 3 2 8 -5 12 -18 6 -17 9 -19 16 -8 7 11 9 11 9
-3 0 -9 -9 -20 -20 -23 -11 -3 -20 -11 -20 -18 0 -8 3 -8 12 1 8 8 18 6 40 -9
26 -19 34 -16 29 14 0 4 8 7 18 7 11 0 23 5 26 11 5 6 12 4 20 -7 11 -16 13
-16 24 2 10 15 11 15 7 2 -3 -10 -1 -20 4 -23 9 -6 14 8 11 27 0 4 10 2 24 -4
13 -6 22 -14 20 -18 -3 -4 7 -8 20 -8 23 1 30 9 26 31 -1 5 3 6 8 2 6 -3 8
-12 5 -19 -6 -17 22 -41 31 -26 3 5 1 10 -4 10 -6 0 -11 5 -11 11 0 6 13 1 29
-10 28 -20 28 -20 46 -1 10 11 22 20 28 20 5 0 -1 -9 -14 -20 -26 -21 -19 -26
13 -9 12 6 18 7 14 1 -3 -5 1 -13 10 -16 24 -9 27 -7 14 9 -7 9 -10 18 -6 22
3 3 6 1 6 -6 0 -7 5 -9 13 -5 6 4 9 4 5 -1 -9 -9 16 -35 34 -35 10 0 10 2 -1
9 -9 6 -5 8 13 9 19 0 26 -6 26 -19 0 -11 -4 -19 -10 -19 -5 0 -6 8 -3 18 6
16 6 16 -11 -1 -10 -10 -25 -16 -33 -13 -8 3 -17 6 -19 6 -3 0 -3 4 0 8 3 5
-5 8 -17 7 -12 -1 -26 3 -30 9 -6 8 -10 7 -14 -2 -2 -6 -10 -9 -16 -5 -24 15
-49 14 -44 -1 3 -8 2 -17 -4 -20 -5 -2 -4 -3 3 -2 7 2 21 -3 31 -12 24 -22 21
-7 -4 17 -17 15 -18 19 -5 17 20 -3 48 -40 38 -51 -4 -5 -1 -5 6 -1 10 6 10
11 1 22 -6 8 -9 17 -5 21 3 4 13 -2 21 -13 15 -19 15 -19 8 1 -6 18 -5 18 30
-3 20 -12 37 -18 37 -13 0 4 14 8 30 8 20 0 30 -5 31 -16 0 -19 21 25 24 51 1
10 5 21 10 25 4 5 5 -1 1 -12 -5 -17 -1 -21 18 -23 16 -1 26 4 28 16 3 14 5
13 10 -6 3 -12 2 -20 -3 -16 -5 3 -9 2 -10 -3 0 -4 -2 -17 -3 -28 -2 -14 3
-21 15 -21 16 0 17 2 3 17 -13 15 -13 17 1 23 24 9 25 8 19 -11 -5 -15 -4 -16
5 -3 9 13 12 12 26 -5 14 -19 15 -18 4 7 -7 15 -16 25 -20 22 -4 -2 -13 5 -19
16 -7 13 -7 20 0 20 5 0 10 -7 10 -16 0 -8 5 -12 10 -9 6 4 7 12 3 18 -5 10 8
1 47 -32 3 -2 -3 -1 -13 2 -11 4 -16 3 -12 -4 4 -5 15 -7 26 -4 12 4 18 2 17
-5 -2 -7 7 -16 19 -21 13 -4 22 -5 22 -1 -3 19 2 25 11 12 8 -13 10 -12 10 4
0 19 0 19 22 0 12 -10 18 -13 13 -5 -6 11 -4 13 9 8 10 -4 15 -3 11 3 -10 16
7 12 29 -7 19 -18 19 -18 3 7 -22 32 -21 39 2 37 11 0 17 -5 15 -9 -3 -4 0 -8
7 -8 7 0 9 -3 6 -6 -4 -4 -12 -3 -20 2 -7 5 -1 -1 13 -13 14 -13 30 -23 35
-23 6 0 4 4 -4 9 -21 13 -25 57 -6 64 8 4 19 -1 25 -11 8 -15 11 -15 20 -2 14
21 12 30 -5 24 -8 -4 -15 -2 -15 4 0 6 8 9 18 7 9 -1 22 1 28 6 7 5 11 3 11
-6 0 -8 -3 -12 -7 -10 -4 2 -12 -7 -18 -20 -10 -23 -23 -30 -44 -26 -5 0 -8
-4 -8 -9 0 -6 7 -10 16 -10 8 0 13 -4 10 -9 -4 -5 1 -8 10 -7 8 1 19 8 23 15
5 7 12 13 17 14 5 1 8 5 7 8 -1 4 8 5 20 2 18 -4 19 -3 7 6 -21 15 -43 14 -37
-2 3 -8 -1 -14 -8 -14 -11 0 -11 5 -4 20 8 13 17 17 34 13 13 -3 27 -2 30 4 3
5 11 10 18 10 6 0 2 -7 -9 -16 -16 -13 -16 -15 -1 -10 27 8 20 0 -16 -22 -30
-17 -47 -52 -25 -52 5 0 8 8 6 17 -2 13 5 17 30 19 27 1 33 -2 29 -15 -3 -11
2 -17 14 -17 13 0 15 4 7 13 -7 9 -6 14 6 19 9 3 16 10 16 16 0 5 -5 6 -12 2
-7 -5 -8 -3 -3 6 6 9 4 11 -5 5 -9 -6 -11 -4 -5 5 5 8 4 11 -2 7 -6 -4 -10 4
-10 18 0 14 4 25 9 25 5 0 7 -4 4 -8 -8 -13 24 -53 36 -46 7 4 5 10 -6 16 -9
5 -16 19 -15 31 1 20 2 20 9 -3 l7 -25 12 25 11 25 -5 -27 -5 -27 33 19 c29
17 37 18 60 7 15 -6 27 -15 27 -19 0 -12 -24 -5 -35 10 -6 7 -18 10 -28 6 -22
-8 -12 -25 11 -18 15 5 15 4 2 -6 -13 -10 -12 -11 4 -6 14 5 17 2 12 -9 -3 -9
-2 -13 4 -10 6 3 10 0 10 -7 1 -7 7 -2 14 11 l14 24 6 -21 c4 -12 17 -27 29
-33 20 -9 20 -9 5 4 -13 10 -14 17 -6 25 6 6 12 23 14 37 2 20 -1 25 -13 21
-8 -3 -17 -6 -21 -6 -3 0 2 -6 12 -13 16 -12 16 -13 -2 -13 -14 0 -19 6 -16
19 2 14 -1 17 -15 12 -10 -3 -24 1 -31 10 -8 10 -9 15 -1 15 6 0 11 -4 11 -9
0 -5 17 -8 38 -6 20 1 42 -1 48 -6 7 -6 16 -4 23 5 10 12 9 15 -6 15 -51 1
-92 7 -98 13 -4 4 2 7 14 7 11 1 30 1 42 2 17 0 18 3 9 14 -9 10 -17 12 -30 5
-18 -10 -30 -4 -30 14 0 6 5 4 10 -4 6 -9 10 -10 10 -3 0 6 -5 15 -10 18 -6 4
-7 11 -4 17 4 6 2 8 -4 4 -5 -3 -13 0 -15 6 -4 10 -6 10 -6 0 -1 -7 -5 -11
-10 -7 -5 3 -12 1 -16 -4 -3 -6 3 -8 15 -6 11 2 23 -1 26 -7 5 -7 0 -9 -15 -5
-15 3 -21 1 -18 -6 3 -7 10 -11 16 -10 6 2 11 -1 11 -6 0 -6 -9 -9 -19 -8 -11
0 -19 4 -19 7 2 18 -3 32 -9 27 -3 -4 -13 -1 -21 6 -13 10 -15 9 -10 -5 10
-24 -13 -50 -32 -37 -13 9 -13 10 1 6 12 -4 17 1 17 18 0 16 -5 22 -14 18 -8
-3 -14 0 -14 5 0 6 9 9 20 7 11 -2 20 1 20 7 0 5 7 8 15 5 8 -4 17 -3 19 2 3
4 21 7 41 6 19 0 35 2 35 5 0 4 6 7 13 8 67 6 96 10 105 16 5 3 37 7 70 8 33
2 58 6 55 11 -4 7 5 8 72 11 19 0 35 3 35 6 0 6 40 12 88 14 12 1 22 3 22 6 0
5 17 8 75 14 11 1 26 5 33 9 6 5 12 6 12 4 0 -3 17 -1 38 4 20 5 48 12 62 15
14 3 33 7 42 10 9 3 26 7 39 9 39 8 57 33 56 78 l-1 42 55 2 c53 2 134 10 134
13 0 1 16 3 35 5 19 2 58 7 85 11 28 3 60 7 73 8 12 0 22 3 22 6 0 5 28 10 68
13 6 0 12 3 12 7 0 3 10 6 23 6 25 0 233 68 275 90 15 8 34 14 43 14 9 0 19 3
23 8 4 4 11 7 14 7 14 1 259 123 302 150 25 16 47 30 50 30 3 0 18 9 35 20 31
22 114 27 150 11 11 -5 22 -10 25 -11 3 0 28 -11 55 -24 43 -20 77 -29 120
-32 20 -2 182 11 270 22 127 15 124 15 131 21 3 4 12 4 19 1 22 -8 121 25 152
51 34 28 93 59 93 49 0 -4 5 -2 12 5 23 23 62 14 80 -17 9 -17 15 -38 13 -48
-2 -10 -4 -29 -4 -43 -1 -29 -86 -124 -170 -189 -103 -80 -346 -209 -481 -256
-3 -1 -12 -4 -20 -8 -76 -29 -114 -38 -170 -41 -36 -2 -82 -11 -102 -20 -21
-9 -39 -15 -41 -14 -2 2 -10 -2 -18 -7 -13 -10 -57 -10 -216 -2 -40 3 -73 1
-73 -4 0 -5 -6 -6 -14 -3 -7 3 -22 -5 -32 -18 -32 -41 -41 -40 -83 2 -29 29
-48 40 -70 40 -17 0 -31 -5 -31 -11 0 -6 -7 -8 -17 -5 -10 4 -14 4 -11 0 4 -4
3 -15 -3 -25 -11 -22 15 -84 31 -74 6 4 10 1 10 -5 0 -8 20 -10 64 -6 51 5 68
3 81 -10 8 -9 33 -18 54 -21 32 -4 41 -1 59 22 12 15 19 31 17 36 -8 11 56 22
91 15 16 -3 58 -14 94 -24 83 -23 102 -19 142 27 18 20 50 45 70 54 20 10 40
22 43 27 3 4 22 14 43 20 20 6 44 14 52 17 8 3 22 7 30 9 70 12 311 130 430
209 105 70 215 171 279 256 49 66 49 91 1 174 l-29 51 35 49 c146 208 200 330
270 605 2 8 11 40 20 70 8 30 16 60 18 65 14 58 106 339 159 485 85 237 105
279 179 375 21 28 42 55 46 60 23 33 142 295 142 314 0 6 33 59 73 118 92 136
121 219 120 343 0 111 -30 215 -76 264 -31 32 -53 41 -127 50 -42 6 -56 15
-96 64 -22 25 -47 53 -56 61 -10 9 -18 21 -18 28 0 26 -25 65 -51 79 -33 17
-69 18 -69 3 0 -5 -4 -8 -9 -5 -13 8 -41 -39 -41 -69 0 -36 40 -72 86 -80 71
-11 136 -52 152 -96 10 -26 -2 -73 -24 -100 -8 -8 -14 -18 -14 -22 0 -3 -10
-17 -22 -30 -37 -38 -88 -99 -88 -104 0 -4 -90 -125 -147 -198 -59 -76 -104
-126 -188 -210 -87 -87 -112 -106 -190 -142 -94 -44 -163 -71 -205 -80 -44 -9
-55 -11 -57 -13 -3 -3 -3 -3 -58 -15 -58 -12 -56 -12 -105 -24 -40 -11 -119
-35 -160 -49 -8 -3 -17 -6 -20 -7 -62 -16 -200 -140 -200 -180 0 -10 -36 -37
-55 -41 -39 -8 -143 -24 -157 -24 -15 0 -16 9 -12 73 7 130 13 161 39 232 26
69 30 142 12 215 -11 40 -65 142 -95 177 -45 52 -65 82 -102 147 -19 35 -48
81 -64 102 -28 37 -41 49 -91 92 -20 17 -138 72 -156 72 -5 0 -60 51 -122 113
-118 118 -124 123 -218 192 -52 38 -191 113 -223 120 -6 1 -18 5 -26 8 -8 3
-42 13 -75 22 -33 9 -71 21 -85 26 -14 5 -35 11 -47 14 -47 10 -59 13 -86 24
-30 12 -115 53 -159 77 -42 23 -94 80 -130 142 -42 74 -98 128 -145 141 -52
15 -65 14 -93 -6z m390 -584 c0 -6 -4 -7 -10 -4 -5 3 -10 11 -10 16 0 6 5 7
10 4 6 -3 10 -11 10 -16z m56 -34 c9 -8 11 -15 6 -15 -5 0 -15 7 -22 15 -7 8
-9 15 -6 15 4 0 14 -7 22 -15z m-21 -25 c3 -5 1 -10 -4 -10 -6 0 -11 5 -11 10
0 6 2 10 4 10 3 0 8 -4 11 -10z m383 -149 c36 -19 74 -135 74 -226 0 -15 -11
-57 -15 -62 -9 -8 -56 20 -60 37 -2 10 -17 21 -33 24 -34 8 -61 29 -92 73 -12
17 -38 41 -57 53 -42 26 -60 75 -36 100 13 13 35 16 108 14 50 -2 100 -7 111
-13z m-2608 -1231 c0 -5 -7 -10 -15 -10 -8 0 -15 5 -15 10 0 6 7 10 15 10 8 0
15 -4 15 -10z m1225 -2399 c-3 -5 5 -17 17 -25 12 -9 17 -16 11 -16 -7 0 -15
5 -18 10 -4 6 -10 8 -15 5 -4 -3 -7 3 -5 12 5 24 4 23 11 23 3 0 3 -4 -1 -9z
m-31 -17 c3 -8 2 -12 -4 -9 -6 3 -10 10 -10 16 0 14 7 11 14 -7z m-1158 -26
c-9 -5 -14 -13 -11 -19 4 -5 1 -9 -4 -9 -14 0 -14 17 -1 25 6 4 8 11 5 16 -3
5 1 6 11 2 15 -5 15 -7 0 -15z m1294 2 c-6 -11 -13 -20 -16 -20 -2 0 0 9 6 20
6 11 13 20 16 20 2 0 0 -9 -6 -20z m-185 0 c3 -5 1 -10 -4 -10 -6 0 -11 5 -11
10 0 6 2 10 4 10 3 0 8 -4 11 -10z m-958 -53 c0 -9 -5 -17 -10 -17 -5 0 -6 7
-3 16 5 14 4 15 -9 4 -10 -8 -15 -9 -15 -1 0 6 4 11 10 11 5 0 6 8 3 18 -6 15
-5 15 8 2 9 -8 16 -23 16 -33z m38 31 c4 -3 2 -9 -3 -12 -5 -3 -15 1 -21 8
-10 11 -9 14 3 12 9 -1 18 -5 21 -8z m43 -13 c-3 -3 -9 2 -12 12 -6 14 -5 15
5 6 7 -7 10 -15 7 -18z m1094 17 c-13 -4 -22 -11 -21 -17 2 -5 -5 -11 -14 -13
-9 -2 -17 1 -17 7 0 6 7 8 15 4 9 -3 15 -2 14 3 -3 19 2 24 24 23 l22 -1 -23
-6z m-152 -16 c0 -2 -7 -7 -16 -10 -8 -3 -12 -2 -9 4 6 10 25 14 25 6z m-400
-10 c0 -2 -8 -10 -17 -17 -16 -13 -17 -12 -4 4 13 16 21 21 21 13z m-320 -10
c0 -3 -4 -8 -10 -11 -5 -3 -10 -1 -10 4 0 6 5 11 10 11 6 0 10 -2 10 -4z m435
-13 c-3 -22 14 -45 27 -37 6 4 6 9 -2 14 -8 5 -5 9 8 12 16 4 19 2 15 -10 -4
-10 -2 -13 5 -8 7 4 12 3 12 -1 0 -15 -38 -34 -45 -22 -5 6 -15 5 -31 -5 -23
-16 -54 -22 -41 -9 4 3 -1 15 -10 26 -11 13 -12 17 -4 12 11 -6 13 -4 8 11 -7
18 -6 18 10 -1 10 -11 27 -21 38 -23 18 -2 17 0 -5 18 -16 13 -19 18 -7 14 10
-4 17 -3 16 2 -2 13 0 24 5 24 2 0 3 -8 1 -17z m102 0 c0 -9 -4 -10 -12 -3 -7
5 -14 7 -17 4 -3 -3 -8 -1 -11 3 -3 5 5 9 17 9 12 0 23 -6 23 -13z m-403 -1
c2 -4 -4 -8 -14 -8 -10 0 -16 4 -14 8 3 4 9 8 14 8 5 0 11 -4 14 -8z m221 -1
c3 -5 2 -12 -3 -15 -5 -3 -9 1 -9 9 0 17 3 19 12 6z m-108 -16 c0 -8 -4 -12
-9 -9 -5 3 -6 10 -3 15 9 13 12 11 12 -6z m-62 -15 c-3 -5 -1 -10 5 -10 6 0 8
-5 5 -10 -4 -6 -11 -8 -16 -5 -12 8 -11 35 2 35 5 0 7 -4 4 -10z m775 0 c0 -5
-4 -10 -10 -10 -5 0 -10 5 -10 10 0 6 5 10 10 10 6 0 10 -4 10 -10z m-211 -13
c8 -11 5 -14 -19 -14 -26 0 -27 2 -12 13 9 8 18 14 18 14 1 0 7 -6 13 -13z
m-119 -17 c0 -5 -2 -10 -4 -10 -3 0 -8 5 -11 10 -3 6 -1 10 4 10 6 0 11 -4 11
-10z"/>
<path d="M4630 2797 c0 -2 6 -10 14 -16 11 -9 16 -9 22 1 4 7 4 10 -1 6 -4 -4
-14 -3 -22 3 -7 6 -13 9 -13 6z"/>
<path d="M9228 6919 c-16 -9 -16 -12 -3 -33 21 -31 65 -25 65 9 0 32 -30 43
-62 24z"/>
<path d="M7148 6816 c-21 -15 -42 -66 -28 -66 6 0 10 -7 10 -15 0 -20 37 -42
85 -51 47 -9 86 -46 116 -113 26 -58 28 -70 18 -99 -7 -19 -4 -30 16 -54 14
-16 25 -36 25 -44 0 -14 6 -16 35 -16 28 0 33 2 39 18 4 10 -1 25 -10 35 -8 9
-17 29 -18 42 -2 14 -13 38 -25 54 -112 144 -133 180 -135 228 -2 67 -81 116
-128 81z"/>
<path d="M2068 6543 c-37 -9 -27 -63 12 -63 18 0 30 19 30 45 0 15 -18 23 -42
18z"/>
<path d="M7407 6227 c-7 -20 28 -40 42 -23 7 9 7 16 -1 24 -16 16 -35 15 -41
-1z"/>
<path d="M950 5800 c0 -5 4 -10 9 -10 6 0 13 5 16 10 3 6 -1 10 -9 10 -9 0
-16 -4 -16 -10z"/>
<path d="M977 5735 c-35 -25 -14 -87 32 -93 24 -4 61 27 61 51 0 41 -58 68
-93 42z"/>
<path d="M7654 5624 c-16 -7 -6 -41 14 -49 8 -3 22 1 29 8 12 12 12 17 -2 31
-17 17 -22 18 -41 10z"/>
<path d="M1785 4530 c-8 -13 4 -32 16 -25 12 8 12 35 0 35 -6 0 -13 -4 -16
-10z"/>
<path d="M1815 4470 c-3 -5 -1 -10 4 -10 6 0 11 5 11 10 0 6 -2 10 -4 10 -3 0
-8 -4 -11 -10z"/>
<path d="M1396 4274 c-9 -23 -8 -24 14 -24 23 0 26 13 6 29 -11 9 -15 8 -20
-5z"/>
<path d="M2140 4004 c-10 -11 -10 -17 0 -29 14 -17 32 -7 36 19 3 21 -22 28
-36 10z"/>
<path d="M2065 3896 c-20 -20 -24 -32 -19 -53 14 -57 48 -69 85 -32 17 17 20
29 16 56 -7 41 -5 38 -34 47 -17 5 -29 1 -48 -18z"/>
<path d="M1995 3732 c-18 -2 -40 -15 -55 -33 -24 -28 -28 -30 -53 -18 -14 7
-29 20 -32 31 -8 22 -57 25 -75 3 -7 -8 -20 -15 -30 -15 -26 0 -47 -55 -29
-77 8 -9 13 -18 12 -20 -2 -1 -3 -8 -3 -13 0 -11 41 13 76 45 54 49 54 49 90
32 21 -11 34 -24 34 -36 0 -10 8 -29 19 -42 24 -30 96 -33 118 -4 22 31 26 63
13 95 -15 37 -47 56 -85 52z"/>
<path d="M3076 3631 c-3 -5 1 -11 9 -15 9 -3 15 0 15 9 0 16 -16 20 -24 6z"/>
<path d="M8466 3573 c-11 -11 -6 -23 9 -23 8 0 15 4 15 9 0 13 -16 22 -24 14z"/>
<path d="M1699 3543 l-24 -28 28 24 c25 23 32 31 24 31 -2 0 -14 -12 -28 -27z"/>
<path d="M1652 3508 c-6 -6 -22 -13 -34 -15 -31 -5 -48 -22 -48 -49 0 -18 6
-24 21 -24 24 0 37 13 62 59 19 36 18 48 -1 29z"/>
<path d="M8010 3497 c0 -19 10 -27 25 -20 17 6 8 33 -11 33 -8 0 -14 -6 -14
-13z"/>
<path d="M3015 3241 c-10 -17 12 -21 25 -6 10 12 10 15 -3 15 -9 0 -18 -4 -22
-9z"/>
<path d="M7797 3173 c-4 -3 -7 -10 -7 -14 0 -11 29 -19 35 -10 6 11 -20 33
-28 24z"/>
<path d="M7740 3105 c0 -10 7 -15 18 -13 21 4 19 22 -2 26 -10 2 -16 -3 -16
-13z"/>
<path d="M3233 3085 c0 -8 4 -12 9 -9 5 3 6 10 3 15 -9 13 -12 11 -12 -6z"/>
<path d="M5724 3038 l-19 -23 23 19 c12 11 22 21 22 23 0 8 -8 2 -26 -19z"/>
<path d="M7777 3054 c-13 -13 -7 -24 14 -24 11 0 19 5 17 12 -5 14 -22 21 -31
12z"/>
<path d="M3586 3002 c-3 -5 1 -9 9 -9 8 0 12 4 9 9 -3 4 -7 8 -9 8 -2 0 -6 -4
-9 -8z"/>
<path d="M5270 2980 c0 -5 5 -10 11 -10 5 0 7 5 4 10 -3 6 -8 10 -11 10 -2 0
-4 -4 -4 -10z"/>
<path d="M5305 2980 c-3 -6 1 -7 9 -4 18 7 21 14 7 14 -6 0 -13 -4 -16 -10z"/>
<path d="M5530 2980 c0 -5 5 -10 11 -10 5 0 7 5 4 10 -3 6 -8 10 -11 10 -2 0
-4 -4 -4 -10z"/>
<path d="M5570 2980 c0 -5 5 -10 11 -10 5 0 7 5 4 10 -3 6 -8 10 -11 10 -2 0
-4 -4 -4 -10z"/>
<path d="M5234 2968 c3 -15 26 -23 26 -8 0 6 -4 9 -9 6 -5 -4 -12 -1 -14 4 -3
6 -4 5 -3 -2z"/>
<path d="M5395 2969 c-4 -6 -5 -12 -2 -15 2 -3 7 2 10 11 7 17 1 20 -8 4z"/>
<path d="M3558 2952 c-3 -11 0 -19 7 -19 7 0 10 8 7 19 -2 10 -6 18 -7 18 -1
0 -5 -8 -7 -18z"/>
<path d="M5105 2960 c-4 -6 -11 -7 -17 -4 -7 4 -8 2 -4 -5 6 -9 11 -9 22 0 14
11 18 19 10 19 -3 0 -8 -5 -11 -10z"/>
<path d="M5187 2957 c-5 -13 6 -42 14 -36 2 2 14 -4 27 -13 15 -10 19 -17 11
-20 -10 -3 -10 -6 -1 -12 7 -4 12 -2 12 5 0 8 4 8 15 -1 14 -12 14 -15 -1 -31
-9 -10 -22 -16 -28 -12 -6 4 -6 0 1 -9 7 -8 9 -19 5 -23 -4 -5 -1 -5 6 -1 6 4
12 2 12 -3 0 -6 8 -11 18 -11 14 0 15 2 2 10 -11 7 -3 9 26 7 28 -2 40 1 38 8
-3 7 2 12 11 12 8 0 15 -3 15 -6 0 -3 9 -17 19 -30 14 -19 20 -21 26 -10 5 8
5 11 0 7 -4 -4 -14 0 -21 10 -19 24 -17 37 3 21 11 -10 14 -10 9 -1 -4 6 -2
13 3 13 6 1 17 2 24 3 6 1 17 -5 24 -14 7 -8 13 -10 13 -5 0 6 5 3 11 -5 9
-13 10 -13 6 0 -2 8 -10 14 -16 13 -6 -2 -11 2 -11 8 0 7 10 9 24 5 14 -3 28
-1 31 4 4 6 10 8 14 5 5 -2 19 7 31 20 13 14 20 25 15 25 -4 0 -14 -8 -21 -17
-12 -17 -13 -16 -23 7 -8 19 -10 20 -9 5 3 -23 -9 -45 -24 -45 -7 0 -6 6 2 15
9 10 9 15 1 15 -6 0 -11 -4 -11 -9 0 -5 -9 -11 -20 -14 -16 -4 -26 3 -43 29
-24 36 -50 54 -40 27 6 -15 5 -15 -16 -1 -13 9 -30 14 -39 11 -11 -5 -13 -3
-7 8 7 11 5 11 -10 -1 -17 -14 -18 -13 -12 3 4 10 7 21 7 23 0 3 4 3 8 0 5 -3
9 1 9 9 0 13 -3 13 -17 0 -9 -8 -19 -12 -23 -9 -3 3 -14 1 -23 -4 -14 -8 -25
-5 -45 9 -21 15 -28 16 -32 6z m41 -23 c12 -8 22 -12 22 -8 0 3 7 1 15 -6 13
-11 14 -10 9 4 -3 9 -2 16 4 16 5 0 12 -10 15 -22 4 -12 9 -19 13 -15 4 4 13
2 21 -4 9 -9 13 -8 13 0 0 9 6 8 23 -1 12 -7 28 -12 34 -13 7 0 13 -4 14 -10
1 -16 -18 -17 -34 0 -14 14 -16 13 -14 -5 1 -16 7 -19 34 -15 19 2 35 -1 39
-8 4 -7 4 -9 -1 -5 -4 4 -16 3 -26 -3 -14 -7 -19 -6 -19 3 0 8 -3 9 -8 3 -4
-6 -14 -10 -22 -10 -8 1 -26 -6 -40 -15 -15 -9 -21 -10 -17 -2 10 15 2 15 -23
2 -29 -16 -34 7 -6 25 l25 17 -32 26 c-18 15 -34 29 -37 33 -3 3 -14 11 -25
17 -11 6 -15 12 -10 12 6 0 21 -7 33 -16z"/>
<path d="M5283 2889 l29 -26 -28 -22 -29 -23 28 16 c20 12 27 13 27 4 0 -9 3
-10 8 -2 4 6 14 10 23 9 11 -2 16 3 14 14 -2 9 -4 21 -4 26 -1 6 -5 4 -10 -3
-7 -11 -9 -11 -14 2 -4 9 -13 13 -22 10 -8 -4 -15 -1 -15 7 0 7 -3 9 -7 6 -3
-4 -11 -3 -17 1 -7 4 1 -5 17 -19z m60 -23 c7 4 8 3 4 -1 -15 -17 -33 -12 -34
9 -2 19 -1 19 8 3 6 -9 16 -14 22 -11z"/>
<path d="M613 2953 c-20 -7 -15 -30 6 -36 23 -6 31 0 31 23 0 16 -13 21 -37
13z"/>
<path d="M5853 2945 c0 -8 4 -12 9 -9 5 3 6 10 3 15 -9 13 -12 11 -12 -6z"/>
<path d="M3490 2939 c0 -5 5 -7 10 -4 6 3 10 8 10 11 0 2 -4 4 -10 4 -5 0 -10
-5 -10 -11z"/>
<path d="M5405 2939 c-4 -6 -5 -12 -2 -15 2 -3 7 2 10 11 7 17 1 20 -8 4z"/>
<path d="M5467 2933 c4 -11 3 -14 -5 -9 -8 5 -10 1 -5 -10 4 -11 8 -13 11 -6
2 7 8 9 14 6 6 -4 5 2 -1 15 -14 25 -23 28 -14 4z"/>
<path d="M7650 2934 c-10 -11 -9 -19 4 -39 25 -38 70 -27 59 15 -7 26 -48 43
-63 24z"/>
<path d="M5340 2936 c0 -2 7 -6 15 -10 8 -3 15 -1 15 4 0 6 -7 10 -15 10 -8 0
-15 -2 -15 -4z"/>
<path d="M5613 2927 c0 -7 11 -13 23 -13 20 0 25 11 6 11 -4 0 -12 3 -18 7 -6
4 -11 1 -11 -5z"/>
<path d="M7850 2931 c0 -5 5 -13 10 -16 6 -3 10 -2 10 4 0 5 -4 13 -10 16 -5
3 -10 2 -10 -4z"/>
<path d="M5420 2925 c0 -3 7 -20 16 -36 15 -30 35 -35 40 -11 1 7 0 8 -3 2 -2
-5 -9 -10 -14 -10 -6 0 -7 5 -4 10 3 6 1 10 -5 10 -6 0 -9 3 -7 8 3 4 -1 13
-9 20 -8 7 -14 10 -14 7z"/>
<path d="M5530 2920 c0 -5 5 -10 10 -10 6 0 10 5 10 10 0 6 -4 10 -10 10 -5 0
-10 -4 -10 -10z"/>
<path d="M5670 2925 c0 -5 5 -17 10 -25 5 -8 10 -10 10 -5 0 6 -5 17 -10 25
-5 8 -10 11 -10 5z"/>
<path d="M5723 2918 c-11 -19 -13 -39 -1 -32 5 3 7 9 4 12 -3 3 -1 11 5 19 6
7 9 13 6 13 -3 0 -9 -6 -14 -12z"/>
<path d="M5910 2921 c0 -6 4 -12 8 -15 5 -3 9 1 9 9 0 8 -4 15 -9 15 -4 0 -8
-4 -8 -9z"/>
<path d="M3725 2900 c2 -27 14 -37 25 -20 5 9 5 19 -2 27 -15 19 -25 16 -23
-7z"/>
<path d="M5497 2903 c-4 -3 -7 -11 -7 -17 0 -6 5 -5 12 2 6 6 9 14 7 17 -3 3
-9 2 -12 -2z"/>
<path d="M3575 2891 c-3 -5 -2 -12 3 -15 5 -3 9 1 9 9 0 17 -3 19 -12 6z"/>
<path d="M5611 2888 c-1 -20 14 -24 25 -6 4 6 3 8 -4 4 -5 -3 -13 0 -15 6 -3
8 -6 6 -6 -4z"/>
<path d="M5662 2884 c10 -10 20 -16 22 -13 3 3 -5 11 -17 18 -21 13 -21 12 -5
-5z"/>
<path d="M5816 2878 c3 -5 10 -6 15 -3 13 9 11 12 -6 12 -8 0 -12 -4 -9 -9z"/>
<path d="M5970 2886 c0 -2 7 -7 16 -10 8 -3 12 -2 9 4 -6 10 -25 14 -25 6z"/>
<path d="M3713 2857 c1 -7 -4 -11 -11 -9 -8 1 -11 -2 -7 -8 5 -8 12 -7 23 2
10 7 18 13 20 14 2 1 -4 4 -12 7 -9 4 -15 1 -13 -6z"/>
<path d="M5574 2858 c-3 -5 -1 -15 5 -21 9 -9 11 -8 6 5 -5 13 -2 15 14 11 12
-3 21 -3 21 0 0 10 -40 15 -46 5z"/>
<path d="M5910 2865 c0 -7 30 -13 34 -7 3 4 -4 9 -15 9 -10 1 -19 0 -19 -2z"/>
<path d="M3990 2839 c0 -5 -5 -7 -11 -3 -8 5 -8 1 0 -13 6 -11 8 -23 4 -26
-11 -11 39 2 53 14 14 12 9 33 -6 24 -5 -3 -11 -1 -15 5 -8 13 -25 13 -25 -1z
m41 -16 c2 1 -2 -4 -10 -11 -17 -14 -37 0 -26 18 5 8 11 8 19 1 7 -6 15 -10
17 -8z"/>
<path d="M4062 2825 c-15 -32 -15 -35 -1 -35 5 0 7 5 4 10 -3 6 -3 10 2 10 12
-1 43 -26 38 -31 -2 -3 5 -5 16 -5 18 0 18 2 5 12 -21 15 -20 24 2 24 10 0 19
-7 20 -15 1 -8 3 -21 4 -28 1 -8 7 -14 15 -14 9 0 10 4 3 11 -15 15 -12 30 3
17 11 -8 16 -5 26 17 10 23 10 25 -2 10 -15 -19 -33 -25 -22 -9 6 11 -13 25
-35 26 -8 0 -23 -6 -34 -15 -16 -13 -18 -13 -16 0 7 45 -10 54 -28 15z m103
-14 c3 -5 2 -12 -3 -15 -5 -3 -9 1 -9 9 0 17 3 19 12 6z"/>
<path d="M5550 2830 c0 -5 5 -10 11 -10 5 0 7 5 4 10 -3 6 -8 10 -11 10 -2 0
-4 -4 -4 -10z"/>
<path d="M3836 2821 c-3 -4 4 -17 17 -27 l22 -19 -20 24 c-18 22 -18 24 -2 18
11 -4 16 -3 12 3 -8 12 -22 13 -29 1z"/>
<path d="M3884 2819 c-4 -7 -3 -9 4 -5 5 3 13 0 15 -6 4 -9 6 -10 6 -1 1 17
-16 25 -25 12z"/>
<path d="M5601 2816 c-9 -11 -9 -16 1 -22 7 -4 10 -4 6 1 -4 4 -3 14 3 22 6 7
9 13 6 13 -2 0 -10 -6 -16 -14z"/>
<path d="M5810 2819 c0 -5 5 -7 10 -4 6 3 10 8 10 11 0 2 -4 4 -10 4 -5 0 -10
-5 -10 -11z"/>
<path d="M3959 2813 c0 -5 -2 -16 -4 -25 -2 -10 0 -18 5 -18 4 0 8 11 8 25 0
22 -7 36 -9 18z"/>
<path d="M4827 2813 c-11 -11 -8 -20 7 -20 8 0 12 6 9 14 -6 15 -7 15 -16 6z"/>
<path d="M5057 2796 c-11 -16 -13 -27 -7 -31 6 -4 7 -11 4 -17 -4 -7 -2 -8 5
-4 9 6 9 11 1 21 -8 9 -8 15 0 20 5 3 10 1 10 -5 0 -6 4 -9 9 -6 5 4 11 0 14
-6 3 -7 4 0 3 16 -2 38 -19 43 -39 12z m33 4 c0 -5 -5 -10 -11 -10 -5 0 -7 5
-4 10 3 6 8 10 11 10 2 0 4 -4 4 -10z"/>
<path d="M5513 2798 c-2 -16 1 -18 10 -9 7 7 8 14 1 21 -6 6 -10 2 -11 -12z"/>
<path d="M7685 2810 c3 -5 8 -10 11 -10 2 0 4 5 4 10 0 6 -5 10 -11 10 -5 0
-7 -4 -4 -10z"/>
<path d="M3730 2799 c0 -5 5 -7 10 -4 6 3 10 8 10 11 0 2 -4 4 -10 4 -5 0 -10
-5 -10 -11z"/>
<path d="M5436 2793 c-6 -14 -5 -15 5 -6 7 7 10 15 7 18 -3 3 -9 -2 -12 -12z"/>
<path d="M5620 2806 c0 -2 8 -10 18 -17 15 -13 16 -12 3 4 -13 16 -21 21 -21
13z"/>
<path d="M5305 2787 c-15 -12 -16 -15 -4 -22 8 -5 11 -5 7 0 -4 4 0 14 10 21
23 18 11 18 -13 1z"/>
<path d="M5347 2788 c-16 -12 -15 -13 7 -13 15 0 22 5 19 13 -3 6 -6 12 -7 12
-1 0 -10 -6 -19 -12z"/>
<path d="M5750 2797 c0 -2 6 -10 14 -16 11 -9 16 -9 22 1 4 7 4 10 -1 6 -4 -4
-14 -3 -22 3 -7 6 -13 9 -13 6z"/>
<path d="M4028 2783 c6 -2 9 -10 6 -15 -4 -7 -2 -8 5 -4 13 9 5 26 -12 25 -9
0 -8 -2 1 -6z"/>
<path d="M4461 2763 c-6 -14 -9 -28 -6 -31 3 -3 5 0 5 6 0 6 7 17 15 26 8 8
11 17 7 20 -5 3 -14 -6 -21 -21z"/>
<path d="M5114 2760 c0 -15 4 -26 9 -23 4 2 5 8 2 13 -3 4 -1 10 4 12 5 1 3 8
-4 15 -10 9 -12 6 -11 -17z"/>
<path d="M5230 2780 c0 -5 6 -9 13 -7 6 1 11 -3 10 -10 -2 -7 4 -10 12 -6 13
5 13 7 -2 19 -22 16 -33 18 -33 4z"/>
<path d="M5460 2780 c-9 -6 -10 -10 -3 -10 6 0 15 5 18 10 8 12 4 12 -15 0z"/>
<path d="M4067 2766 c-4 -10 -1 -13 8 -9 8 3 12 9 9 14 -7 12 -11 11 -17 -5z"/>
<path d="M5167 2767 c-3 -8 1 -14 8 -14 7 0 11 6 8 14 -3 7 -6 13 -8 13 -2 0
-5 -6 -8 -13z"/>
<path d="M3834 2748 l-19 -23 23 19 c21 18 27 26 19 26 -2 0 -12 -10 -23 -22z"/>
<path d="M3935 2751 c-3 -5 -2 -12 3 -15 5 -3 9 1 9 9 0 17 -3 19 -12 6z"/>
<path d="M4115 2751 c-3 -5 -2 -12 3 -15 5 -3 9 1 9 9 0 17 -3 19 -12 6z"/>
<path d="M4306 2745 c-18 -14 -18 -14 1 -12 11 0 20 7 20 14 0 7 -1 13 -1 13
-1 0 -9 -7 -20 -15z"/>
<path d="M4600 2751 c0 -6 4 -13 10 -16 6 -3 7 1 4 9 -7 18 -14 21 -14 7z"/>
<path d="M5475 2749 c-4 -6 -5 -12 -2 -15 2 -3 7 2 10 11 7 17 1 20 -8 4z"/>
<path d="M3895 2740 c3 -5 8 -10 11 -10 2 0 4 5 4 10 0 6 -5 10 -11 10 -5 0
-7 -4 -4 -10z"/>
<path d="M3975 2740 c3 -5 8 -10 11 -10 2 0 4 5 4 10 0 6 -5 10 -11 10 -5 0
-7 -4 -4 -10z"/>
<path d="M4010 2739 c0 -5 5 -7 10 -4 6 3 10 8 10 11 0 2 -4 4 -10 4 -5 0 -10
-5 -10 -11z"/>
<path d="M4200 2740 c-9 -6 -10 -10 -3 -10 6 0 15 5 18 10 8 12 4 12 -15 0z"/>
<path d="M4695 2741 c-3 -5 -2 -12 3 -15 5 -3 9 1 9 9 0 17 -3 19 -12 6z"/>
<path d="M4748 2743 c7 -3 16 -2 19 1 4 3 -2 6 -13 5 -11 0 -14 -3 -6 -6z"/>
<path d="M4946 2738 c3 -5 10 -6 15 -3 13 9 11 12 -6 12 -8 0 -12 -4 -9 -9z"/>
<path d="M7543 2727 c-3 -5 -3 -11 1 -14 8 -8 56 6 56 16 0 11 -50 9 -57 -2z"/>
<path d="M4667 2719 c7 -7 15 -10 18 -7 3 3 -2 9 -12 12 -14 6 -15 5 -6 -5z"/>
<path d="M5639 2713 c-13 -16 -12 -17 4 -4 9 7 17 15 17 17 0 8 -8 3 -21 -13z"/>
<path d="M5715 2720 c-3 -5 -1 -10 4 -10 6 0 11 5 11 10 0 6 -2 10 -4 10 -3 0
-8 -4 -11 -10z"/>
<path d="M4073 2695 c0 -8 4 -12 9 -9 5 3 6 10 3 15 -9 13 -12 11 -12 -6z"/>
<path d="M4535 2701 c-3 -5 -2 -12 3 -15 5 -3 9 1 9 9 0 17 -3 19 -12 6z"/>
<path d="M4756 2698 c3 -4 11 -5 19 -1 21 7 19 12 -4 10 -11 0 -18 -5 -15 -9z"/>
<path d="M4825 2700 c-3 -6 1 -7 9 -4 18 7 21 14 7 14 -6 0 -13 -4 -16 -10z"/>
<path d="M4970 2686 c0 -2 7 -7 16 -10 8 -3 12 -2 9 4 -6 10 -25 14 -25 6z"/>
</g>
</svg>
